{
  "scene": 0,
  "asset": { "generator": "ImageToStl.com", "version": "2.0" },
  "scenes": [{ "name": "Scene", "nodes": [0] }],
  "nodes": [
    { "name": "Node0", "children": [1] },
    { "name": "Node1", "mesh": 0 }
  ],
  "materials": [
    {
      "name": "x1",
      "pbrMetallicRoughness": {
        "baseColorFactor": [0.85, 0.85, 0.85, 1.0],
        "metallicFactor": 0.05,
        "roughnessFactor": 0.5
      },
      "doubleSided": true
    }
  ],
  "meshes": [
    {
      "name": "Mesh0",
      "primitives": [
        {
          "indices": 2,
          "material": 0,
          "attributes": { "POSITION": 0, "NORMAL": 1 }
        }
      ]
    }
  ],
  "accessors": [
    {
      "bufferView": 0,
      "componentType": 5126,
      "count": 77520,
      "type": "VEC3",
      "min": [-0.9878453, -1.008995, -0.08546698],
      "max": [0.9878453, 1.008995, 1.7999896]
    },
    { "bufferView": 1, "componentType": 5126, "count": 77520, "type": "VEC3" },
    { "bufferView": 2, "componentType": 5125, "count": 77520, "type": "SCALAR" }
  ],
  "bufferViews": [
    { "target": 34962, "buffer": 0, "byteLength": 930240, "byteOffset": 0 },
    {
      "target": 34962,
      "buffer": 0,
      "byteLength": 930240,
      "byteOffset": 930240
    },
    {
      "target": 34963,
      "buffer": 0,
      "byteLength": 310080,
      "byteOffset": 1860480
    }
  ],
  "buffers": [
    {
      "byteLength": 2170560,
      "uri": "data:application/octet-stream;base64,"
    }
  ]
}
