{
  "scene": 0,
  "asset": { "generator": "ImageToStl.com", "version": "2.0" },
  "scenes": [{ "name": "Scene", "nodes": [0] }],
  "nodes": [
    { "name": "Node0", "children": [1] },
    {
      "name": "Node1",
      "mesh": 0,
      "children": [
        2, 3, 4, 5, 6, 7, 8, 9, 10, 11, 12, 13, 14, 15, 16, 17, 18, 19, 20, 21,
        22, 23, 24, 25, 26, 27, 28
      ]
    },
    { "name": "Node2", "mesh": 1 },
    { "name": "Node3", "mesh": 2 },
    { "name": "Node4", "mesh": 3 },
    { "name": "Node5", "mesh": 4 },
    { "name": "Node6", "mesh": 5 },
    { "name": "Node7", "mesh": 6 },
    { "name": "Node8", "mesh": 7 },
    { "name": "Node9", "mesh": 8 },
    { "name": "Node10", "mesh": 9 },
    { "name": "Node11", "mesh": 10 },
    { "name": "Node12", "mesh": 11 },
    { "name": "Node13", "mesh": 12 },
    { "name": "Node14", "mesh": 13 },
    { "name": "Node15", "mesh": 14 },
    { "name": "Node16", "mesh": 15 },
    { "name": "Node17", "mesh": 16 },
    { "name": "Node18", "mesh": 17 },
    { "name": "Node19", "mesh": 18 },
    { "name": "Node20", "mesh": 19 },
    { "name": "Node21", "mesh": 20 },
    { "name": "Node22", "mesh": 21 },
    { "name": "Node23", "mesh": 22 },
    { "name": "Node24", "mesh": 23 },
    { "name": "Node25", "mesh": 24 },
    { "name": "Node26", "mesh": 25 },
    { "name": "Node27", "mesh": 26 },
    { "name": "Node28", "mesh": 27 }
  ],
  "materials": [
    {
      "name": "#AAB2C3FF",
      "pbrMetallicRoughness": {
        "baseColorFactor": [0.6666667, 0.69803923, 0.7647059, 1.0],
        "metallicFactor": 0.05,
        "roughnessFactor": 0.5
      },
      "doubleSided": true
    },
    {
      "name": "#3A2C18FF",
      "pbrMetallicRoughness": {
        "baseColorFactor": [0.22745098, 0.17254902, 0.09411765, 1.0],
        "metallicFactor": 0.05,
        "roughnessFactor": 0.5
      },
      "doubleSided": true
    },
    {
      "name": "#F7E099FF",
      "pbrMetallicRoughness": {
        "baseColorFactor": [0.96862745, 0.8784314, 0.6, 1.0],
        "metallicFactor": 0.05,
        "roughnessFactor": 0.5
      },
      "doubleSided": true
    },
    {
      "name": "#D8D8D8FF",
      "pbrMetallicRoughness": {
        "baseColorFactor": [0.84705883, 0.84705883, 0.84705883, 1.0],
        "metallicFactor": 0.05,
        "roughnessFactor": 0.5
      },
      "doubleSided": true
    },
    {
      "name": "#FFE89EFF",
      "pbrMetallicRoughness": {
        "baseColorFactor": [1.0, 0.9098039, 0.61960787, 1.0],
        "metallicFactor": 0.05,
        "roughnessFactor": 0.5
      },
      "doubleSided": true
    },
    {
      "name": "#E5EAEDFF",
      "pbrMetallicRoughness": {
        "baseColorFactor": [0.8980392, 0.91764706, 0.92941177, 1.0],
        "metallicFactor": 0.05,
        "roughnessFactor": 0.5
      },
      "doubleSided": true
    },
    {
      "name": "#191919FF",
      "pbrMetallicRoughness": {
        "baseColorFactor": [0.09803922, 0.09803922, 0.09803922, 1.0],
        "metallicFactor": 0.05,
        "roughnessFactor": 0.5
      },
      "doubleSided": true
    },
    {
      "name": "#EFEFEFFF",
      "pbrMetallicRoughness": {
        "baseColorFactor": [0.9372549, 0.9372549, 0.9372549, 1.0],
        "metallicFactor": 0.05,
        "roughnessFactor": 0.5
      },
      "doubleSided": true
    },
    {
      "name": "#FFF2E8FF",
      "pbrMetallicRoughness": {
        "baseColorFactor": [1.0, 0.9490196, 0.9098039, 1.0],
        "metallicFactor": 0.05,
        "roughnessFactor": 0.5
      },
      "doubleSided": true
    },
    {
      "name": "#D3D6D3FF",
      "pbrMetallicRoughness": {
        "baseColorFactor": [0.827451, 0.8392157, 0.827451, 1.0],
        "metallicFactor": 0.05,
        "roughnessFactor": 0.5
      },
      "doubleSided": true
    },
    {
      "name": "#FFFFFFFF",
      "pbrMetallicRoughness": {
        "baseColorFactor": [1.0, 1.0, 1.0, 1.0],
        "metallicFactor": 0.05,
        "roughnessFactor": 0.5
      },
      "doubleSided": true
    },
    {
      "name": "#D7D0C0FF",
      "pbrMetallicRoughness": {
        "baseColorFactor": [0.84313726, 0.8156863, 0.7529412, 1.0],
        "metallicFactor": 0.05,
        "roughnessFactor": 0.5
      },
      "doubleSided": true
    },
    {
      "name": "#FBFBFFFF",
      "pbrMetallicRoughness": {
        "baseColorFactor": [0.9843137, 0.9843137, 1.0, 1.0],
        "metallicFactor": 0.05,
        "roughnessFactor": 0.5
      },
      "doubleSided": true
    },
    {
      "name": "#FFCE7FFF",
      "pbrMetallicRoughness": {
        "baseColorFactor": [1.0, 0.80784315, 0.49803922, 1.0],
        "metallicFactor": 0.05,
        "roughnessFactor": 0.5
      },
      "doubleSided": true
    },
    {
      "name": "#856F41FF",
      "pbrMetallicRoughness": {
        "baseColorFactor": [0.52156866, 0.43529412, 0.25490198, 1.0],
        "metallicFactor": 0.05,
        "roughnessFactor": 0.5
      },
      "doubleSided": true
    },
    {
      "name": "#CAD1EEFF",
      "pbrMetallicRoughness": {
        "baseColorFactor": [0.7921569, 0.81960785, 0.93333334, 1.0],
        "metallicFactor": 0.05,
        "roughnessFactor": 0.5
      },
      "doubleSided": true
    },
    {
      "name": "#272727FF",
      "pbrMetallicRoughness": {
        "baseColorFactor": [0.15294118, 0.15294118, 0.15294118, 1.0],
        "metallicFactor": 0.05,
        "roughnessFactor": 0.5
      },
      "doubleSided": true
    },
    {
      "name": "#7E7E7EFF",
      "pbrMetallicRoughness": {
        "baseColorFactor": [0.49411765, 0.49411765, 0.49411765, 1.0],
        "metallicFactor": 0.05,
        "roughnessFactor": 0.5
      },
      "doubleSided": true
    },
    {
      "name": "#895956FF",
      "pbrMetallicRoughness": {
        "baseColorFactor": [0.5372549, 0.34901962, 0.3372549, 1.0],
        "metallicFactor": 0.05,
        "roughnessFactor": 0.5
      },
      "doubleSided": true
    },
    {
      "name": "#1E1E1EFF",
      "pbrMetallicRoughness": {
        "baseColorFactor": [0.11764706, 0.11764706, 0.11764706, 1.0],
        "metallicFactor": 0.05,
        "roughnessFactor": 0.5
      },
      "doubleSided": true
    },
    {
      "name": "#000000FF",
      "pbrMetallicRoughness": {
        "baseColorFactor": [0.0, 0.0, 0.0, 1.0],
        "metallicFactor": 0.05,
        "roughnessFactor": 0.5
      },
      "doubleSided": true
    },
    {
      "name": "#24598EFF",
      "pbrMetallicRoughness": {
        "baseColorFactor": [0.14117648, 0.34901962, 0.5568628, 1.0],
        "metallicFactor": 0.05,
        "roughnessFactor": 0.5
      },
      "doubleSided": true
    },
    {
      "name": "#D3AA20FF",
      "pbrMetallicRoughness": {
        "baseColorFactor": [0.827451, 0.6666667, 0.1254902, 1.0],
        "metallicFactor": 0.05,
        "roughnessFactor": 0.5
      },
      "doubleSided": true
    },
    {
      "name": "#B11818FF",
      "pbrMetallicRoughness": {
        "baseColorFactor": [0.69411767, 0.09411765, 0.09411765, 1.0],
        "metallicFactor": 0.05,
        "roughnessFactor": 0.5
      },
      "doubleSided": true
    }
  ],
  "meshes": [
    {
      "name": "Mesh0",
      "primitives": [
        { "indices": 1, "material": 0, "attributes": { "POSITION": 0 } }
      ]
    },
    {
      "name": "Mesh0",
      "primitives": [
        { "indices": 3, "material": 6, "attributes": { "POSITION": 2 } }
      ]
    },
    {
      "name": "Mesh0",
      "primitives": [
        { "indices": 5, "material": 1, "attributes": { "POSITION": 4 } }
      ]
    },
    {
      "name": "Mesh0",
      "primitives": [
        { "indices": 7, "material": 0, "attributes": { "POSITION": 6 } }
      ]
    },
    {
      "name": "Mesh0",
      "primitives": [
        { "indices": 9, "material": 0, "attributes": { "POSITION": 8 } }
      ]
    },
    {
      "name": "Mesh0",
      "primitives": [
        { "indices": 11, "material": 9, "attributes": { "POSITION": 10 } }
      ]
    },
    {
      "name": "Mesh0",
      "primitives": [
        { "indices": 13, "material": 3, "attributes": { "POSITION": 12 } }
      ]
    },
    {
      "name": "Mesh0",
      "primitives": [
        { "indices": 15, "material": 4, "attributes": { "POSITION": 14 } }
      ]
    },
    {
      "name": "Mesh0",
      "primitives": [
        { "indices": 17, "material": 5, "attributes": { "POSITION": 16 } }
      ]
    },
    {
      "name": "Mesh0",
      "primitives": [
        { "indices": 19, "material": 11, "attributes": { "POSITION": 18 } }
      ]
    },
    {
      "name": "Mesh0",
      "primitives": [
        { "indices": 21, "material": 12, "attributes": { "POSITION": 20 } }
      ]
    },
    {
      "name": "Mesh0",
      "primitives": [
        { "indices": 23, "material": 13, "attributes": { "POSITION": 22 } }
      ]
    },
    {
      "name": "Mesh0",
      "primitives": [
        { "indices": 25, "material": 14, "attributes": { "POSITION": 24 } }
      ]
    },
    {
      "name": "Mesh0",
      "primitives": [
        { "indices": 27, "material": 15, "attributes": { "POSITION": 26 } }
      ]
    },
    {
      "name": "Mesh0",
      "primitives": [
        { "indices": 29, "material": 16, "attributes": { "POSITION": 28 } }
      ]
    },
    {
      "name": "Mesh0",
      "primitives": [
        { "indices": 31, "material": 6, "attributes": { "POSITION": 30 } }
      ]
    },
    {
      "name": "Mesh0",
      "primitives": [
        { "indices": 33, "material": 7, "attributes": { "POSITION": 32 } }
      ]
    },
    {
      "name": "Mesh0",
      "primitives": [
        { "indices": 35, "material": 8, "attributes": { "POSITION": 34 } }
      ]
    },
    {
      "name": "Mesh0",
      "primitives": [
        { "indices": 37, "material": 10, "attributes": { "POSITION": 36 } }
      ]
    },
    {
      "name": "Mesh0",
      "primitives": [
        { "indices": 39, "material": 1, "attributes": { "POSITION": 38 } }
      ]
    },
    {
      "name": "Mesh0",
      "primitives": [
        { "indices": 41, "material": 2, "attributes": { "POSITION": 40 } }
      ]
    },
    {
      "name": "Mesh0",
      "primitives": [
        { "indices": 43, "material": 17, "attributes": { "POSITION": 42 } }
      ]
    },
    {
      "name": "Mesh0",
      "primitives": [
        { "indices": 45, "material": 18, "attributes": { "POSITION": 44 } }
      ]
    },
    {
      "name": "Mesh0",
      "primitives": [
        { "indices": 47, "material": 19, "attributes": { "POSITION": 46 } }
      ]
    },
    {
      "name": "Mesh0",
      "primitives": [
        { "indices": 49, "material": 20, "attributes": { "POSITION": 48 } }
      ]
    },
    {
      "name": "Mesh0",
      "primitives": [
        { "indices": 51, "material": 21, "attributes": { "POSITION": 50 } }
      ]
    },
    {
      "name": "Mesh0",
      "primitives": [
        { "indices": 53, "material": 22, "attributes": { "POSITION": 52 } }
      ]
    },
    {
      "name": "Mesh0",
      "primitives": [
        { "indices": 55, "material": 23, "attributes": { "POSITION": 54 } }
      ]
    }
  ],
  "accessors": [
    {
      "bufferView": 0,
      "componentType": 5126,
      "count": 10702,
      "type": "VEC3",
      "min": [-52.403, -3.25, -64.25],
      "max": [-0.975, 8.38, -1.55]
    },
    {
      "bufferView": 1,
      "componentType": 5123,
      "count": 38250,
      "type": "SCALAR"
    },
    {
      "bufferView": 2,
      "componentType": 5126,
      "count": 10317,
      "type": "VEC3",
      "min": [-52.503, -3.07, -67.41],
      "max": [-1.335, 11.0, 1.905]
    },
    {
      "bufferView": 3,
      "componentType": 5123,
      "count": 54378,
      "type": "SCALAR"
    },
    {
      "bufferView": 4,
      "componentType": 5126,
      "count": 2977,
      "type": "VEC3",
      "min": [-45.335, 0.96, -51.397858],
      "max": [-1.6380503, 8.5, -6.484013]
    },
    {
      "bufferView": 5,
      "componentType": 5123,
      "count": 11151,
      "type": "SCALAR"
    },
    {
      "bufferView": 6,
      "componentType": 5126,
      "count": 10624,
      "type": "VEC3",
      "min": [-52.403, -2.82, -64.25],
      "max": [-1.54, 8.38, -1.55]
    },
    {
      "bufferView": 7,
      "componentType": 5123,
      "count": 38187,
      "type": "SCALAR"
    },
    {
      "bufferView": 8,
      "componentType": 5126,
      "count": 7933,
      "type": "VEC3",
      "min": [-52.403, -2.75, -64.25],
      "max": [-0.975, 8.38, -1.55]
    },
    {
      "bufferView": 9,
      "componentType": 5123,
      "count": 26283,
      "type": "SCALAR"
    },
    {
      "bufferView": 10,
      "componentType": 5126,
      "count": 16809,
      "type": "VEC3",
      "min": [-47.875, -4.2, -66.555],
      "max": [-2.775, 8.5, -3.597]
    },
    {
      "bufferView": 11,
      "componentType": 5123,
      "count": 94914,
      "type": "SCALAR"
    },
    {
      "bufferView": 12,
      "componentType": 5126,
      "count": 7717,
      "type": "VEC3",
      "min": [-53.34, -1.65, -68.58],
      "max": [0.0, 0.5, 0.0]
    },
    {
      "bufferView": 13,
      "componentType": 5123,
      "count": 33879,
      "type": "SCALAR"
    },
    {
      "bufferView": 14,
      "componentType": 5126,
      "count": 920,
      "type": "VEC3",
      "min": [-39.77, -1.9978126, -8.79],
      "max": [-36.27, 7.669981, 4.97]
    },
    {
      "bufferView": 15,
      "componentType": 5123,
      "count": 5472,
      "type": "SCALAR"
    },
    {
      "bufferView": 16,
      "componentType": 5126,
      "count": 13991,
      "type": "VEC3",
      "min": [-44.87718, -4.2, -28.862232],
      "max": [-2.6410253, 11.05, 6.35]
    },
    {
      "bufferView": 17,
      "componentType": 5123,
      "count": 79617,
      "type": "SCALAR"
    },
    {
      "bufferView": 18,
      "componentType": 5126,
      "count": 520,
      "type": "VEC3",
      "min": [-43.67, 0.0, -9.78],
      "max": [-32.37, 10.68, 5.97]
    },
    {
      "bufferView": 19,
      "componentType": 5123,
      "count": 3156,
      "type": "SCALAR"
    },
    {
      "bufferView": 20,
      "componentType": 5126,
      "count": 24,
      "type": "VEC3",
      "min": [-39.77, 0.125, -19.825],
      "max": [-29.191, 0.575, -12.052]
    },
    { "bufferView": 21, "componentType": 5123, "count": 108, "type": "SCALAR" },
    {
      "bufferView": 22,
      "componentType": 5126,
      "count": 342,
      "type": "VEC3",
      "min": [-28.775, 0.1, -5.614],
      "max": [-24.225, 1.02, -2.514]
    },
    {
      "bufferView": 23,
      "componentType": 5123,
      "count": 1341,
      "type": "SCALAR"
    },
    {
      "bufferView": 24,
      "componentType": 5126,
      "count": 136,
      "type": "VEC3",
      "min": [-44.83, -2.0, -63.2],
      "max": [-1.9431373, 0.875, -11.665]
    },
    { "bufferView": 25, "componentType": 5123, "count": 549, "type": "SCALAR" },
    {
      "bufferView": 26,
      "componentType": 5126,
      "count": 554,
      "type": "VEC3",
      "min": [-52.503, 0.05, -23.47231],
      "max": [-14.015, 2.1, -2.15]
    },
    {
      "bufferView": 27,
      "componentType": 5123,
      "count": 2808,
      "type": "SCALAR"
    },
    {
      "bufferView": 28,
      "componentType": 5126,
      "count": 1211,
      "type": "VEC3",
      "min": [-37.171, 0.06, -22.5],
      "max": [-32.171, 1.01, -17.5]
    },
    {
      "bufferView": 29,
      "componentType": 5123,
      "count": 4029,
      "type": "SCALAR"
    },
    {
      "bufferView": 30,
      "componentType": 5126,
      "count": 215,
      "type": "VEC3",
      "min": [-48.23, 0.0, -67.41],
      "max": [-2.04, 8.01, -17.02]
    },
    { "bufferView": 31, "componentType": 5123, "count": 627, "type": "SCALAR" },
    {
      "bufferView": 32,
      "componentType": 5126,
      "count": 32,
      "type": "VEC3",
      "min": [-42.637, 0.3, -59.12],
      "max": [-33.69, 0.8, -27.24]
    },
    { "bufferView": 33, "componentType": 5123, "count": 144, "type": "SCALAR" },
    {
      "bufferView": 34,
      "componentType": 5126,
      "count": 3594,
      "type": "VEC3",
      "min": [-28.162, -2.0, -24.423],
      "max": [-24.162, 3.0, -13.423621]
    },
    {
      "bufferView": 35,
      "componentType": 5123,
      "count": 21552,
      "type": "SCALAR"
    },
    {
      "bufferView": 36,
      "componentType": 5126,
      "count": 1234,
      "type": "VEC3",
      "min": [-51.396862, -2.0, -60.186],
      "max": [-8.577743, 5.81, -12.177]
    },
    {
      "bufferView": 37,
      "componentType": 5123,
      "count": 5676,
      "type": "SCALAR"
    },
    {
      "bufferView": 38,
      "componentType": 5126,
      "count": 1111,
      "type": "VEC3",
      "min": [-36.577084, 0.96, -51.355],
      "max": [-1.9130477, 8.38, -6.509987]
    },
    {
      "bufferView": 39,
      "componentType": 5123,
      "count": 2178,
      "type": "SCALAR"
    },
    {
      "bufferView": 40,
      "componentType": 5126,
      "count": 15633,
      "type": "VEC3",
      "min": [-42.662, 0.3, -63.515],
      "max": [-11.923, 4.3, -26.94]
    },
    {
      "bufferView": 41,
      "componentType": 5123,
      "count": 87972,
      "type": "SCALAR"
    },
    {
      "bufferView": 42,
      "componentType": 5126,
      "count": 457,
      "type": "VEC3",
      "min": [-51.8, -2.0, -64.25],
      "max": [-1.9431373, -1.55, -23.126]
    },
    {
      "bufferView": 43,
      "componentType": 5123,
      "count": 2136,
      "type": "SCALAR"
    },
    {
      "bufferView": 44,
      "componentType": 5126,
      "count": 100,
      "type": "VEC3",
      "min": [-28.785, 0.0, -9.497],
      "max": [-14.149, 1.6, -2.434]
    },
    { "bufferView": 45, "componentType": 5123, "count": 360, "type": "SCALAR" },
    {
      "bufferView": 46,
      "componentType": 5126,
      "count": 8,
      "type": "VEC3",
      "min": [-21.77, 0.1, -22.721],
      "max": [-13.84, 0.1, -17.65]
    },
    { "bufferView": 47, "componentType": 5123, "count": 12, "type": "SCALAR" },
    {
      "bufferView": 48,
      "componentType": 5126,
      "count": 24,
      "type": "VEC3",
      "min": [-28.0, 0.2, -8.828],
      "max": [-25.0, 1.13, -7.428]
    },
    { "bufferView": 49, "componentType": 5123, "count": 114, "type": "SCALAR" },
    {
      "bufferView": 50,
      "componentType": 5126,
      "count": 3784,
      "type": "VEC3",
      "min": [-53.34, -1.65, -68.58],
      "max": [0.0, 0.0, 0.0]
    },
    {
      "bufferView": 51,
      "componentType": 5123,
      "count": 12324,
      "type": "SCALAR"
    },
    {
      "bufferView": 52,
      "componentType": 5126,
      "count": 60,
      "type": "VEC3",
      "min": [-30.805, 2.5, -67.41],
      "max": [-26.62, 8.5, -62.41]
    },
    { "bufferView": 53, "componentType": 5123, "count": 180, "type": "SCALAR" },
    {
      "bufferView": 54,
      "componentType": 5126,
      "count": 252,
      "type": "VEC3",
      "min": [-50.902534, 1.95, -7.85],
      "max": [-47.903465, 3.1, -4.85]
    },
    { "bufferView": 55, "componentType": 5123, "count": 1128, "type": "SCALAR" }
  ],
  "bufferViews": [
    { "target": 34962, "buffer": 0, "byteLength": 128424, "byteOffset": 0 },
    { "target": 34963, "buffer": 0, "byteLength": 76500, "byteOffset": 128424 },
    {
      "target": 34962,
      "buffer": 0,
      "byteLength": 123804,
      "byteOffset": 204924
    },
    {
      "target": 34963,
      "buffer": 0,
      "byteLength": 108756,
      "byteOffset": 328728
    },
    { "target": 34962, "buffer": 0, "byteLength": 35724, "byteOffset": 437484 },
    { "target": 34963, "buffer": 0, "byteLength": 22302, "byteOffset": 473208 },
    {
      "target": 34962,
      "buffer": 0,
      "byteLength": 127488,
      "byteOffset": 495512
    },
    { "target": 34963, "buffer": 0, "byteLength": 76374, "byteOffset": 623000 },
    { "target": 34962, "buffer": 0, "byteLength": 95196, "byteOffset": 699376 },
    { "target": 34963, "buffer": 0, "byteLength": 52566, "byteOffset": 794572 },
    {
      "target": 34962,
      "buffer": 0,
      "byteLength": 201708,
      "byteOffset": 847140
    },
    {
      "target": 34963,
      "buffer": 0,
      "byteLength": 189828,
      "byteOffset": 1048848
    },
    {
      "target": 34962,
      "buffer": 0,
      "byteLength": 92604,
      "byteOffset": 1238676
    },
    {
      "target": 34963,
      "buffer": 0,
      "byteLength": 67758,
      "byteOffset": 1331280
    },
    {
      "target": 34962,
      "buffer": 0,
      "byteLength": 11040,
      "byteOffset": 1399040
    },
    {
      "target": 34963,
      "buffer": 0,
      "byteLength": 10944,
      "byteOffset": 1410080
    },
    {
      "target": 34962,
      "buffer": 0,
      "byteLength": 167892,
      "byteOffset": 1421024
    },
    {
      "target": 34963,
      "buffer": 0,
      "byteLength": 159234,
      "byteOffset": 1588916
    },
    { "target": 34962, "buffer": 0, "byteLength": 6240, "byteOffset": 1748152 },
    { "target": 34963, "buffer": 0, "byteLength": 6312, "byteOffset": 1754392 },
    { "target": 34962, "buffer": 0, "byteLength": 288, "byteOffset": 1760704 },
    { "target": 34963, "buffer": 0, "byteLength": 216, "byteOffset": 1760992 },
    { "target": 34962, "buffer": 0, "byteLength": 4104, "byteOffset": 1761208 },
    { "target": 34963, "buffer": 0, "byteLength": 2682, "byteOffset": 1765312 },
    { "target": 34962, "buffer": 0, "byteLength": 1632, "byteOffset": 1767996 },
    { "target": 34963, "buffer": 0, "byteLength": 1098, "byteOffset": 1769628 },
    { "target": 34962, "buffer": 0, "byteLength": 6648, "byteOffset": 1770728 },
    { "target": 34963, "buffer": 0, "byteLength": 5616, "byteOffset": 1777376 },
    {
      "target": 34962,
      "buffer": 0,
      "byteLength": 14532,
      "byteOffset": 1782992
    },
    { "target": 34963, "buffer": 0, "byteLength": 8058, "byteOffset": 1797524 },
    { "target": 34962, "buffer": 0, "byteLength": 2580, "byteOffset": 1805584 },
    { "target": 34963, "buffer": 0, "byteLength": 1254, "byteOffset": 1808164 },
    { "target": 34962, "buffer": 0, "byteLength": 384, "byteOffset": 1809420 },
    { "target": 34963, "buffer": 0, "byteLength": 288, "byteOffset": 1809804 },
    {
      "target": 34962,
      "buffer": 0,
      "byteLength": 43128,
      "byteOffset": 1810092
    },
    {
      "target": 34963,
      "buffer": 0,
      "byteLength": 43104,
      "byteOffset": 1853220
    },
    {
      "target": 34962,
      "buffer": 0,
      "byteLength": 14808,
      "byteOffset": 1896324
    },
    {
      "target": 34963,
      "buffer": 0,
      "byteLength": 11352,
      "byteOffset": 1911132
    },
    {
      "target": 34962,
      "buffer": 0,
      "byteLength": 13332,
      "byteOffset": 1922484
    },
    { "target": 34963, "buffer": 0, "byteLength": 4356, "byteOffset": 1935816 },
    {
      "target": 34962,
      "buffer": 0,
      "byteLength": 187596,
      "byteOffset": 1940172
    },
    {
      "target": 34963,
      "buffer": 0,
      "byteLength": 175944,
      "byteOffset": 2127768
    },
    { "target": 34962, "buffer": 0, "byteLength": 5484, "byteOffset": 2303712 },
    { "target": 34963, "buffer": 0, "byteLength": 4272, "byteOffset": 2309196 },
    { "target": 34962, "buffer": 0, "byteLength": 1200, "byteOffset": 2313468 },
    { "target": 34963, "buffer": 0, "byteLength": 720, "byteOffset": 2314668 },
    { "target": 34962, "buffer": 0, "byteLength": 96, "byteOffset": 2315388 },
    { "target": 34963, "buffer": 0, "byteLength": 24, "byteOffset": 2315484 },
    { "target": 34962, "buffer": 0, "byteLength": 288, "byteOffset": 2315508 },
    { "target": 34963, "buffer": 0, "byteLength": 228, "byteOffset": 2315796 },
    {
      "target": 34962,
      "buffer": 0,
      "byteLength": 45408,
      "byteOffset": 2316024
    },
    {
      "target": 34963,
      "buffer": 0,
      "byteLength": 24648,
      "byteOffset": 2361432
    },
    { "target": 34962, "buffer": 0, "byteLength": 720, "byteOffset": 2386080 },
    { "target": 34963, "buffer": 0, "byteLength": 360, "byteOffset": 2386800 },
    { "target": 34962, "buffer": 0, "byteLength": 3024, "byteOffset": 2387160 },
    { "target": 34963, "buffer": 0, "byteLength": 2256, "byteOffset": 2390184 }
  ],
  "buffers": [
    {
      "byteLength": 2392440,
      "uri": "data:application/octet-stream;base64,"
    }
  ]
}
